# xmcd CD database file
#
# Track frame offsets:
#       150
#       11893
#       30263
#       48658
#       65809
#       82691
#       101218
#       122038
#       144940
#       163431
#       183343
#       204052
#       215851
#       230160
#       241024
#
# Disc length: 3505 seconds
#
# Revision: 0
# Processed by: cddbd v1.5.2PL0 Copyright (c) Steve Scherf et al.
# Submitted via: jack 3.1.1
#
DISCID=d20daf0f
DTITLE=Supersci - Pinetrees On The Pavement
DYEAR=2006
DGENRE=Rap
TTITLE0=Pinetrees On The Pavement
TTITLE1=All Year Next Year
TTITLE2=When I'm On The Grind
TTITLE3=A Deuce Or An Ace
TTITLE4=On Production
TTITLE5=A Lotta Love
TTITLE6=Get!
TTITLE7=Ain't No End
TTITLE8=Lullaby
TTITLE9=One Last Glass
TTITLE10=July To July
TTITLE11=Time Prisoners
TTITLE12=Move On
TTITLE13=Pinetress Outro
TTITLE14=Our Block To Your Block
EXTD=
EXTT0=
EXTT1=
EXTT2=
EXTT3=
EXTT4=
EXTT5=
EXTT6=
EXTT7=
EXTT8=
EXTT9=
EXTT10=
EXTT11=
EXTT12=
EXTT13=
EXTT14=
PLAYORDER=
